<svg width="21" height="21" fill="none" xmlns="http://www.w3.org/2000/svg"><path d="m20.252 18.852-6.594-6.593a7.549 7.549 0 0 0 1.576-4.642 7.572 7.572 0 0 0-2.232-5.385A7.56 7.56 0 0 0 7.617 0a7.571 7.571 0 0 0-5.385 2.232A7.557 7.557 0 0 0 0 7.617c0 2.034.795 3.948 2.232 5.385a7.556 7.556 0 0 0 5.385 2.232 7.555 7.555 0 0 0 4.64-1.574l6.593 6.592a.207.207 0 0 0 .227.045.208.208 0 0 0 .067-.045l1.108-1.105a.208.208 0 0 0 0-.294zm-8.613-7.213a5.657 5.657 0 0 1-4.022 1.666 5.657 5.657 0 0 1-4.022-1.666A5.657 5.657 0 0 1 1.93 7.617c0-1.518.591-2.948 1.665-4.022A5.657 5.657 0 0 1 7.617 1.93c1.519 0 2.948.589 4.022 1.665a5.657 5.657 0 0 1 1.666 4.022 5.653 5.653 0 0 1-1.666 4.022z" fill="currentColor"/></svg>